<svg xmlns="http://www.w3.org/2000/svg" viewBox="0 0 1920 1080" class="hero-svg">
  <defs>
    <!-- Modern Gradient -->
    <linearGradient id="modernGradient" x1="0%" y1="0%" x2="100%" y2="100%">
      <stop offset="0%" stop-color="#2A2A2A" />
      <stop offset="100%" stop-color="#1A1A1A" />
    </linearGradient>

    <!-- Glass Morphism Effect -->
    <filter id="glassEffect" x="0" y="0" width="100%" height="100%">
      <feGaussianBlur in="SourceGraphic" stdDeviation="8" />
      <feColorMatrix values="1 0 0 0 0 0 1 0 0 0 0 0 1 0 0 0 0 0 0.15 0" />
      <feBlend in="SourceGraphic" mode="overlay" />
    </filter>

    <!-- Dynamic Pattern -->
    <pattern id="dynamicPattern" patternUnits="userSpaceOnUse" width="120" height="120">
      <path d="M60 0L120 60L60 120L0 60Z" fill="none" stroke="#E91E63" stroke-width="2" opacity="0.1"/>
    </pattern>

    <!-- Subtle Noise Texture -->
    <filter id="noise">
      <feTurbulence type="fractalNoise" baseFrequency="0.6" numOctaves="3" result="noise"/>
      <feComposite in="SourceGraphic" in2="noise" operator="arithmetic" k1="0" k2="0.2" k3="0" k4="0"/>
    </filter>
  </defs>

  <!-- Base Background -->
  <rect width="100%" height="100%" fill="url(#modernGradient)" filter="url(#noise)"/>

  <!-- Geometric Layers -->
  <path d="M1920 0L960 540L1920 1080Z" fill="#E91E63" opacity="0.05"/>
  <path d="M0 0L960 540L0 1080Z" fill="#D4AF37" opacity="0.05"/>

  <!-- Floating Elements -->
  <g opacity="0.3">
    <circle cx="30%" cy="30%" r="200" fill="#D4AF37" filter="blur(80px)"/>
    <circle cx="70%" cy="60%" r="250" fill="#E91E63" filter="blur(100px)"/>
    <rect x="40%" y="20%" width="400" height="400" transform="rotate(45 960 540)" fill="#FFFFFF" filter="blur(120px)" opacity="0.1"/>
  </g>

  <!-- Modern Architecture Elements -->
  <g transform="translate(0, 100)">
    <!-- Abstract Building Shapes -->
    <path d="M1200 800V200h100v600h-100z" fill="#FFFFFF" opacity="0.1"/>
    <path d="M800 900V400h80v500h-80z" fill="#FFFFFF" opacity="0.1"/>
    
    <!-- Glass Panel Effect -->
    <rect x="400" y="300" width="600" height="500" rx="20" fill="rgba(255,255,255,0.05)" stroke="rgba(255,255,255,0.1)" stroke-width="2"/>
    <path d="M400 300l300-150 300 150" stroke="rgba(255,255,255,0.1)" stroke-width="2" fill="none"/>
    
    <!-- Neon Accent -->
    <path d="M1000 400v300" stroke="#E91E63" stroke-width="4" stroke-linecap="round" opacity="0.5" filter="url(#glassEffect)"/>
  </g>

  <!-- Interactive Light Effects -->
  <g opacity="0.3">
    <circle cx="50%" cy="50%" r="400" fill="url(#dynamicPattern)" filter="blur(40px)"/>
    <rect width="100%" height="100%" fill="url(#dynamicPattern)" opacity="0.05"/>
  </g>

  <!-- Floating Particles -->
  <g opacity="0.4">
    <!-- Multiple small circles with random positions -->
    <circle cx="20%" cy="30%" r="3" fill="#FFFFFF"/>
    <circle cx="85%" cy="70%" r="2" fill="#D4AF37"/>
    <circle cx="45%" cy="20%" r="4" fill="#E91E63"/>
    <!-- Add more particles as needed -->
  </g>

  <!-- Modern Border Accents -->
  <path d="M0 80L1920 0" stroke="rgba(255,255,255,0.1)" stroke-width="2" stroke-dasharray="8 4"/>
  <path d="M0 1000L1920 1080" stroke="rgba(255,255,255,0.1)" stroke-width="2" stroke-dasharray="8 4"/>
</svg>